<?xml version="1.0" encoding="utf-8" standalone="no"?>
<!DOCTYPE svg PUBLIC "-//W3C//DTD SVG 1.1//EN"
  "http://www.w3.org/Graphics/SVG/1.1/DTD/svg11.dtd">
<svg xmlns:xlink="http://www.w3.org/1999/xlink" width="238.965625pt" height="184.455469pt" viewBox="0 0 238.965625 184.455469" xmlns="http://www.w3.org/2000/svg" version="1.1">
 <metadata>
  <rdf:RDF xmlns:dc="http://purl.org/dc/elements/1.1/" xmlns:cc="http://creativecommons.org/ns#" xmlns:rdf="http://www.w3.org/1999/02/22-rdf-syntax-ns#">
   <cc:Work>
    <dc:type rdf:resource="http://purl.org/dc/dcmitype/StillImage"/>
    <dc:date>2022-07-11T13:25:21.762532</dc:date>
    <dc:format>image/svg+xml</dc:format>
    <dc:creator>
     <cc:Agent>
      <dc:title>Matplotlib v3.5.1, https://matplotlib.org/</dc:title>
     </cc:Agent>
    </dc:creator>
   </cc:Work>
  </rdf:RDF>
 </metadata>
 <defs>
  <style type="text/css">*{stroke-linejoin: round; stroke-linecap: butt}</style>
 </defs>
 <g id="figure_1">
  <g id="patch_1">
   <path d="M 0 184.455469 
L 238.965625 184.455469 
L 238.965625 -0 
L 0 -0 
L 0 184.455469 
z
" style="fill: none"/>
  </g>
  <g id="axes_1">
   <g id="patch_2">
    <path d="M 30.103125 146.899219 
L 225.403125 146.899219 
L 225.403125 10.999219 
L 30.103125 10.999219 
z
" style="fill: #ffffff"/>
   </g>
   <g id="matplotlib.axis_1">
    <g id="xtick_1">
     <g id="line2d_1">
      <path d="M 75.172356 146.899219 
L 75.172356 10.999219 
" clip-path="url(#pd2a8366694)" style="fill: none; stroke: #b0b0b0; stroke-width: 0.8; stroke-linecap: square"/>
     </g>
     <g id="line2d_2">
      <defs>
       <path id="mf761bd0377" d="M 0 0 
L 0 3.5 
" style="stroke: #000000; stroke-width: 0.8"/>
      </defs>
      <g>
       <use xlink:href="#mf761bd0377" x="75.172356" y="146.899219" style="stroke: #000000; stroke-width: 0.8"/>
      </g>
     </g>
     <g id="text_1">
      <!-- 10 -->
      <g transform="translate(68.809856 161.497656)scale(0.1 -0.1)">
       <defs>
        <path id="DejaVuSans-31" d="M 794 531 
L 1825 531 
L 1825 4091 
L 703 3866 
L 703 4441 
L 1819 4666 
L 2450 4666 
L 2450 531 
L 3481 531 
L 3481 0 
L 794 0 
L 794 531 
z
" transform="scale(0.015625)"/>
        <path id="DejaVuSans-30" d="M 2034 4250 
Q 1547 4250 1301 3770 
Q 1056 3291 1056 2328 
Q 1056 1369 1301 889 
Q 1547 409 2034 409 
Q 2525 409 2770 889 
Q 3016 1369 3016 2328 
Q 3016 3291 2770 3770 
Q 2525 4250 2034 4250 
z
M 2034 4750 
Q 2819 4750 3233 4129 
Q 3647 3509 3647 2328 
Q 3647 1150 3233 529 
Q 2819 -91 2034 -91 
Q 1250 -91 836 529 
Q 422 1150 422 2328 
Q 422 3509 836 4129 
Q 1250 4750 2034 4750 
z
" transform="scale(0.015625)"/>
       </defs>
       <use xlink:href="#DejaVuSans-31"/>
       <use xlink:href="#DejaVuSans-30" x="63.623047"/>
      </g>
     </g>
    </g>
    <g id="xtick_2">
     <g id="line2d_3">
      <path d="M 125.249279 146.899219 
L 125.249279 10.999219 
" clip-path="url(#pd2a8366694)" style="fill: none; stroke: #b0b0b0; stroke-width: 0.8; stroke-linecap: square"/>
     </g>
     <g id="line2d_4">
      <g>
       <use xlink:href="#mf761bd0377" x="125.249279" y="146.899219" style="stroke: #000000; stroke-width: 0.8"/>
      </g>
     </g>
     <g id="text_2">
      <!-- 20 -->
      <g transform="translate(118.886779 161.497656)scale(0.1 -0.1)">
       <defs>
        <path id="DejaVuSans-32" d="M 1228 531 
L 3431 531 
L 3431 0 
L 469 0 
L 469 531 
Q 828 903 1448 1529 
Q 2069 2156 2228 2338 
Q 2531 2678 2651 2914 
Q 2772 3150 2772 3378 
Q 2772 3750 2511 3984 
Q 2250 4219 1831 4219 
Q 1534 4219 1204 4116 
Q 875 4013 500 3803 
L 500 4441 
Q 881 4594 1212 4672 
Q 1544 4750 1819 4750 
Q 2544 4750 2975 4387 
Q 3406 4025 3406 3419 
Q 3406 3131 3298 2873 
Q 3191 2616 2906 2266 
Q 2828 2175 2409 1742 
Q 1991 1309 1228 531 
z
" transform="scale(0.015625)"/>
       </defs>
       <use xlink:href="#DejaVuSans-32"/>
       <use xlink:href="#DejaVuSans-30" x="63.623047"/>
      </g>
     </g>
    </g>
    <g id="xtick_3">
     <g id="line2d_5">
      <path d="M 175.326202 146.899219 
L 175.326202 10.999219 
" clip-path="url(#pd2a8366694)" style="fill: none; stroke: #b0b0b0; stroke-width: 0.8; stroke-linecap: square"/>
     </g>
     <g id="line2d_6">
      <g>
       <use xlink:href="#mf761bd0377" x="175.326202" y="146.899219" style="stroke: #000000; stroke-width: 0.8"/>
      </g>
     </g>
     <g id="text_3">
      <!-- 30 -->
      <g transform="translate(168.963702 161.497656)scale(0.1 -0.1)">
       <defs>
        <path id="DejaVuSans-33" d="M 2597 2516 
Q 3050 2419 3304 2112 
Q 3559 1806 3559 1356 
Q 3559 666 3084 287 
Q 2609 -91 1734 -91 
Q 1441 -91 1130 -33 
Q 819 25 488 141 
L 488 750 
Q 750 597 1062 519 
Q 1375 441 1716 441 
Q 2309 441 2620 675 
Q 2931 909 2931 1356 
Q 2931 1769 2642 2001 
Q 2353 2234 1838 2234 
L 1294 2234 
L 1294 2753 
L 1863 2753 
Q 2328 2753 2575 2939 
Q 2822 3125 2822 3475 
Q 2822 3834 2567 4026 
Q 2313 4219 1838 4219 
Q 1578 4219 1281 4162 
Q 984 4106 628 3988 
L 628 4550 
Q 988 4650 1302 4700 
Q 1616 4750 1894 4750 
Q 2613 4750 3031 4423 
Q 3450 4097 3450 3541 
Q 3450 3153 3228 2886 
Q 3006 2619 2597 2516 
z
" transform="scale(0.015625)"/>
       </defs>
       <use xlink:href="#DejaVuSans-33"/>
       <use xlink:href="#DejaVuSans-30" x="63.623047"/>
      </g>
     </g>
    </g>
    <g id="xtick_4">
     <g id="line2d_7">
      <path d="M 225.403125 146.899219 
L 225.403125 10.999219 
" clip-path="url(#pd2a8366694)" style="fill: none; stroke: #b0b0b0; stroke-width: 0.8; stroke-linecap: square"/>
     </g>
     <g id="line2d_8">
      <g>
       <use xlink:href="#mf761bd0377" x="225.403125" y="146.899219" style="stroke: #000000; stroke-width: 0.8"/>
      </g>
     </g>
     <g id="text_4">
      <!-- 40 -->
      <g transform="translate(219.040625 161.497656)scale(0.1 -0.1)">
       <defs>
        <path id="DejaVuSans-34" d="M 2419 4116 
L 825 1625 
L 2419 1625 
L 2419 4116 
z
M 2253 4666 
L 3047 4666 
L 3047 1625 
L 3713 1625 
L 3713 1100 
L 3047 1100 
L 3047 0 
L 2419 0 
L 2419 1100 
L 313 1100 
L 313 1709 
L 2253 4666 
z
" transform="scale(0.015625)"/>
       </defs>
       <use xlink:href="#DejaVuSans-34"/>
       <use xlink:href="#DejaVuSans-30" x="63.623047"/>
      </g>
     </g>
    </g>
    <g id="text_5">
     <!-- epoch -->
     <g transform="translate(112.525 175.175781)scale(0.1 -0.1)">
      <defs>
       <path id="DejaVuSans-65" d="M 3597 1894 
L 3597 1613 
L 953 1613 
Q 991 1019 1311 708 
Q 1631 397 2203 397 
Q 2534 397 2845 478 
Q 3156 559 3463 722 
L 3463 178 
Q 3153 47 2828 -22 
Q 2503 -91 2169 -91 
Q 1331 -91 842 396 
Q 353 884 353 1716 
Q 353 2575 817 3079 
Q 1281 3584 2069 3584 
Q 2775 3584 3186 3129 
Q 3597 2675 3597 1894 
z
M 3022 2063 
Q 3016 2534 2758 2815 
Q 2500 3097 2075 3097 
Q 1594 3097 1305 2825 
Q 1016 2553 972 2059 
L 3022 2063 
z
" transform="scale(0.015625)"/>
       <path id="DejaVuSans-70" d="M 1159 525 
L 1159 -1331 
L 581 -1331 
L 581 3500 
L 1159 3500 
L 1159 2969 
Q 1341 3281 1617 3432 
Q 1894 3584 2278 3584 
Q 2916 3584 3314 3078 
Q 3713 2572 3713 1747 
Q 3713 922 3314 415 
Q 2916 -91 2278 -91 
Q 1894 -91 1617 61 
Q 1341 213 1159 525 
z
M 3116 1747 
Q 3116 2381 2855 2742 
Q 2594 3103 2138 3103 
Q 1681 3103 1420 2742 
Q 1159 2381 1159 1747 
Q 1159 1113 1420 752 
Q 1681 391 2138 391 
Q 2594 391 2855 752 
Q 3116 1113 3116 1747 
z
" transform="scale(0.015625)"/>
       <path id="DejaVuSans-6f" d="M 1959 3097 
Q 1497 3097 1228 2736 
Q 959 2375 959 1747 
Q 959 1119 1226 758 
Q 1494 397 1959 397 
Q 2419 397 2687 759 
Q 2956 1122 2956 1747 
Q 2956 2369 2687 2733 
Q 2419 3097 1959 3097 
z
M 1959 3584 
Q 2709 3584 3137 3096 
Q 3566 2609 3566 1747 
Q 3566 888 3137 398 
Q 2709 -91 1959 -91 
Q 1206 -91 779 398 
Q 353 888 353 1747 
Q 353 2609 779 3096 
Q 1206 3584 1959 3584 
z
" transform="scale(0.015625)"/>
       <path id="DejaVuSans-63" d="M 3122 3366 
L 3122 2828 
Q 2878 2963 2633 3030 
Q 2388 3097 2138 3097 
Q 1578 3097 1268 2742 
Q 959 2388 959 1747 
Q 959 1106 1268 751 
Q 1578 397 2138 397 
Q 2388 397 2633 464 
Q 2878 531 3122 666 
L 3122 134 
Q 2881 22 2623 -34 
Q 2366 -91 2075 -91 
Q 1284 -91 818 406 
Q 353 903 353 1747 
Q 353 2603 823 3093 
Q 1294 3584 2113 3584 
Q 2378 3584 2631 3529 
Q 2884 3475 3122 3366 
z
" transform="scale(0.015625)"/>
       <path id="DejaVuSans-68" d="M 3513 2113 
L 3513 0 
L 2938 0 
L 2938 2094 
Q 2938 2591 2744 2837 
Q 2550 3084 2163 3084 
Q 1697 3084 1428 2787 
Q 1159 2491 1159 1978 
L 1159 0 
L 581 0 
L 581 4863 
L 1159 4863 
L 1159 2956 
Q 1366 3272 1645 3428 
Q 1925 3584 2291 3584 
Q 2894 3584 3203 3211 
Q 3513 2838 3513 2113 
z
" transform="scale(0.015625)"/>
      </defs>
      <use xlink:href="#DejaVuSans-65"/>
      <use xlink:href="#DejaVuSans-70" x="61.523438"/>
      <use xlink:href="#DejaVuSans-6f" x="125"/>
      <use xlink:href="#DejaVuSans-63" x="186.181641"/>
      <use xlink:href="#DejaVuSans-68" x="241.162109"/>
     </g>
    </g>
   </g>
   <g id="matplotlib.axis_2">
    <g id="ytick_1">
     <g id="line2d_9">
      <path d="M 30.103125 146.899219 
L 225.403125 146.899219 
" clip-path="url(#pd2a8366694)" style="fill: none; stroke: #b0b0b0; stroke-width: 0.8; stroke-linecap: square"/>
     </g>
     <g id="line2d_10">
      <defs>
       <path id="m66e20cb824" d="M 0 0 
L -3.5 0 
" style="stroke: #000000; stroke-width: 0.8"/>
      </defs>
      <g>
       <use xlink:href="#m66e20cb824" x="30.103125" y="146.899219" style="stroke: #000000; stroke-width: 0.8"/>
      </g>
     </g>
     <g id="text_6">
      <!-- 0.0 -->
      <g transform="translate(7.2 150.698437)scale(0.1 -0.1)">
       <defs>
        <path id="DejaVuSans-2e" d="M 684 794 
L 1344 794 
L 1344 0 
L 684 0 
L 684 794 
z
" transform="scale(0.015625)"/>
       </defs>
       <use xlink:href="#DejaVuSans-30"/>
       <use xlink:href="#DejaVuSans-2e" x="63.623047"/>
       <use xlink:href="#DejaVuSans-30" x="95.410156"/>
      </g>
     </g>
    </g>
    <g id="ytick_2">
     <g id="line2d_11">
      <path d="M 30.103125 119.719219 
L 225.403125 119.719219 
" clip-path="url(#pd2a8366694)" style="fill: none; stroke: #b0b0b0; stroke-width: 0.8; stroke-linecap: square"/>
     </g>
     <g id="line2d_12">
      <g>
       <use xlink:href="#m66e20cb824" x="30.103125" y="119.719219" style="stroke: #000000; stroke-width: 0.8"/>
      </g>
     </g>
     <g id="text_7">
      <!-- 0.2 -->
      <g transform="translate(7.2 123.518437)scale(0.1 -0.1)">
       <use xlink:href="#DejaVuSans-30"/>
       <use xlink:href="#DejaVuSans-2e" x="63.623047"/>
       <use xlink:href="#DejaVuSans-32" x="95.410156"/>
      </g>
     </g>
    </g>
    <g id="ytick_3">
     <g id="line2d_13">
      <path d="M 30.103125 92.539219 
L 225.403125 92.539219 
" clip-path="url(#pd2a8366694)" style="fill: none; stroke: #b0b0b0; stroke-width: 0.8; stroke-linecap: square"/>
     </g>
     <g id="line2d_14">
      <g>
       <use xlink:href="#m66e20cb824" x="30.103125" y="92.539219" style="stroke: #000000; stroke-width: 0.8"/>
      </g>
     </g>
     <g id="text_8">
      <!-- 0.4 -->
      <g transform="translate(7.2 96.338437)scale(0.1 -0.1)">
       <use xlink:href="#DejaVuSans-30"/>
       <use xlink:href="#DejaVuSans-2e" x="63.623047"/>
       <use xlink:href="#DejaVuSans-34" x="95.410156"/>
      </g>
     </g>
    </g>
    <g id="ytick_4">
     <g id="line2d_15">
      <path d="M 30.103125 65.359219 
L 225.403125 65.359219 
" clip-path="url(#pd2a8366694)" style="fill: none; stroke: #b0b0b0; stroke-width: 0.8; stroke-linecap: square"/>
     </g>
     <g id="line2d_16">
      <g>
       <use xlink:href="#m66e20cb824" x="30.103125" y="65.359219" style="stroke: #000000; stroke-width: 0.8"/>
      </g>
     </g>
     <g id="text_9">
      <!-- 0.6 -->
      <g transform="translate(7.2 69.158437)scale(0.1 -0.1)">
       <defs>
        <path id="DejaVuSans-36" d="M 2113 2584 
Q 1688 2584 1439 2293 
Q 1191 2003 1191 1497 
Q 1191 994 1439 701 
Q 1688 409 2113 409 
Q 2538 409 2786 701 
Q 3034 994 3034 1497 
Q 3034 2003 2786 2293 
Q 2538 2584 2113 2584 
z
M 3366 4563 
L 3366 3988 
Q 3128 4100 2886 4159 
Q 2644 4219 2406 4219 
Q 1781 4219 1451 3797 
Q 1122 3375 1075 2522 
Q 1259 2794 1537 2939 
Q 1816 3084 2150 3084 
Q 2853 3084 3261 2657 
Q 3669 2231 3669 1497 
Q 3669 778 3244 343 
Q 2819 -91 2113 -91 
Q 1303 -91 875 529 
Q 447 1150 447 2328 
Q 447 3434 972 4092 
Q 1497 4750 2381 4750 
Q 2619 4750 2861 4703 
Q 3103 4656 3366 4563 
z
" transform="scale(0.015625)"/>
       </defs>
       <use xlink:href="#DejaVuSans-30"/>
       <use xlink:href="#DejaVuSans-2e" x="63.623047"/>
       <use xlink:href="#DejaVuSans-36" x="95.410156"/>
      </g>
     </g>
    </g>
    <g id="ytick_5">
     <g id="line2d_17">
      <path d="M 30.103125 38.179219 
L 225.403125 38.179219 
" clip-path="url(#pd2a8366694)" style="fill: none; stroke: #b0b0b0; stroke-width: 0.8; stroke-linecap: square"/>
     </g>
     <g id="line2d_18">
      <g>
       <use xlink:href="#m66e20cb824" x="30.103125" y="38.179219" style="stroke: #000000; stroke-width: 0.8"/>
      </g>
     </g>
     <g id="text_10">
      <!-- 0.8 -->
      <g transform="translate(7.2 41.978437)scale(0.1 -0.1)">
       <defs>
        <path id="DejaVuSans-38" d="M 2034 2216 
Q 1584 2216 1326 1975 
Q 1069 1734 1069 1313 
Q 1069 891 1326 650 
Q 1584 409 2034 409 
Q 2484 409 2743 651 
Q 3003 894 3003 1313 
Q 3003 1734 2745 1975 
Q 2488 2216 2034 2216 
z
M 1403 2484 
Q 997 2584 770 2862 
Q 544 3141 544 3541 
Q 544 4100 942 4425 
Q 1341 4750 2034 4750 
Q 2731 4750 3128 4425 
Q 3525 4100 3525 3541 
Q 3525 3141 3298 2862 
Q 3072 2584 2669 2484 
Q 3125 2378 3379 2068 
Q 3634 1759 3634 1313 
Q 3634 634 3220 271 
Q 2806 -91 2034 -91 
Q 1263 -91 848 271 
Q 434 634 434 1313 
Q 434 1759 690 2068 
Q 947 2378 1403 2484 
z
M 1172 3481 
Q 1172 3119 1398 2916 
Q 1625 2713 2034 2713 
Q 2441 2713 2670 2916 
Q 2900 3119 2900 3481 
Q 2900 3844 2670 4047 
Q 2441 4250 2034 4250 
Q 1625 4250 1398 4047 
Q 1172 3844 1172 3481 
z
" transform="scale(0.015625)"/>
       </defs>
       <use xlink:href="#DejaVuSans-30"/>
       <use xlink:href="#DejaVuSans-2e" x="63.623047"/>
       <use xlink:href="#DejaVuSans-38" x="95.410156"/>
      </g>
     </g>
    </g>
    <g id="ytick_6">
     <g id="line2d_19">
      <path d="M 30.103125 10.999219 
L 225.403125 10.999219 
" clip-path="url(#pd2a8366694)" style="fill: none; stroke: #b0b0b0; stroke-width: 0.8; stroke-linecap: square"/>
     </g>
     <g id="line2d_20">
      <g>
       <use xlink:href="#m66e20cb824" x="30.103125" y="10.999219" style="stroke: #000000; stroke-width: 0.8"/>
      </g>
     </g>
     <g id="text_11">
      <!-- 1.0 -->
      <g transform="translate(7.2 14.798437)scale(0.1 -0.1)">
       <use xlink:href="#DejaVuSans-31"/>
       <use xlink:href="#DejaVuSans-2e" x="63.623047"/>
       <use xlink:href="#DejaVuSans-30" x="95.410156"/>
      </g>
     </g>
    </g>
   </g>
   <g id="line2d_21">
    <path d="M 55.795498 -1 
L 56.134583 1.815609 
L 57.12758 3.873768 
L 58.120576 3.914579 
L 59.113573 5.167058 
L 60.149279 5.986831 
L 61.142275 10.302832 
L 62.135272 10.494612 
L 65.156971 12.709456 
L 66.149968 15.786959 
L 67.142964 17.159013 
L 68.135961 16.890937 
L 70.121954 17.659438 
L 70.164663 17.809969 
L 71.15766 18.388831 
L 72.150657 17.918387 
L 73.143653 19.355646 
L 74.13665 20.031467 
L 75.172356 20.349894 
L 76.165352 24.087618 
L 77.158349 23.437396 
L 78.151345 23.284636 
L 79.144342 23.917184 
L 80.180048 24.004299 
L 81.173045 26.28545 
L 82.166041 25.832603 
L 84.152034 26.231722 
L 85.18774 26.657663 
L 86.180737 29.790442 
L 87.173733 28.705387 
L 89.159727 28.701937 
L 90.195433 29.092256 
L 91.188429 31.912639 
L 93.174422 30.212037 
L 94.167419 30.750195 
L 95.203125 31.133359 
L 96.196122 32.875811 
L 97.189118 32.817841 
L 98.182115 32.543821 
L 99.175111 32.902681 
L 100.210817 32.887783 
L 101.203814 35.045813 
L 102.19681 34.325182 
L 103.189807 35.011528 
L 104.182804 34.674822 
L 105.21851 34.602337 
L 106.211506 33.982207 
L 107.204503 33.705742 
L 108.197499 35.158765 
L 109.190496 35.936733 
L 110.226202 36.239086 
L 111.219198 37.270947 
L 112.212195 36.780394 
L 113.205192 37.458475 
L 114.198188 37.329645 
L 115.233894 37.374988 
L 116.226891 37.963458 
L 117.219887 37.444757 
L 118.212884 38.315801 
L 119.20588 38.177542 
L 120.241587 38.566427 
L 121.234583 39.231165 
L 122.22758 39.116129 
L 123.220576 39.504809 
L 124.213573 39.742424 
L 125.249279 40.217552 
L 126.242275 41.134138 
L 129.221265 40.216182 
L 130.256971 40.556309 
L 131.249968 41.716544 
L 132.242964 41.673318 
L 133.235961 42.080729 
L 135.264663 41.259495 
L 136.25766 41.322869 
L 137.250657 42.207588 
L 138.243653 42.2584 
L 139.23665 42.463147 
L 140.272356 42.417573 
L 141.265352 43.119161 
L 142.258349 42.244128 
L 143.251345 43.333883 
L 144.244342 43.659391 
L 145.280048 43.406469 
L 146.273045 43.416103 
L 148.259038 44.248413 
L 150.28774 43.79959 
L 151.280737 43.783077 
L 152.273733 43.612408 
L 154.259727 44.950618 
L 155.295433 44.848617 
L 156.288429 45.888742 
L 157.281426 46.071749 
L 158.274422 45.974087 
L 159.267419 45.17184 
L 160.303125 45.155727 
L 161.296122 47.461131 
L 162.289118 45.5888 
L 163.282115 45.907817 
L 164.275111 45.820191 
L 165.310817 46.013071 
L 166.303814 49.329124 
L 167.29681 47.170974 
L 168.289807 46.837403 
L 169.282804 46.665885 
L 170.31851 46.847071 
L 171.311506 48.586468 
L 172.304503 48.391492 
L 173.297499 53.104639 
L 174.290496 55.697588 
L 175.326202 57.584567 
L 176.319198 68.703959 
L 177.312195 67.987399 
L 178.305192 68.149172 
L 179.298188 68.465594 
L 180.333894 68.299571 
L 181.326891 69.352967 
L 182.319887 69.657415 
L 183.312884 70.628179 
L 184.30588 70.87427 
L 185.298877 71.461293 
L 185.341587 71.388131 
L 186.334583 73.040713 
L 187.32758 73.52653 
L 188.320576 75.936091 
L 190.349279 83.492563 
L 191.342275 98.004435 
L 192.335272 98.834718 
L 193.328269 99.200124 
L 194.321265 99.252166 
L 195.356971 99.401973 
L 196.349968 100.500478 
L 197.342964 100.651462 
L 200.321954 101.715149 
L 200.364663 101.66534 
L 201.35766 103.061571 
L 202.350657 102.591872 
L 203.343653 102.780583 
L 204.33665 103.22237 
L 206.365352 103.15743 
L 207.358349 103.663473 
L 209.344342 103.968969 
L 210.380048 104.102997 
L 211.373045 106.818056 
L 212.366041 105.803151 
L 213.359038 105.121249 
L 214.352034 104.955038 
L 215.38774 105.164401 
L 216.380737 106.617806 
L 217.373733 106.648678 
L 219.359727 105.822793 
L 220.395433 106.092419 
L 221.388429 108.528412 
L 222.381426 107.471589 
L 223.374422 107.008889 
L 225.360415 106.952936 
L 225.403125 106.980101 
L 225.403125 106.980101 
" clip-path="url(#pd2a8366694)" style="fill: none; stroke: #1f77b4; stroke-width: 1.5; stroke-linecap: square"/>
   </g>
   <g id="line2d_22">
    <path d="M 26.088429 133.405116 
L 27.081426 131.196056 
L 28.074422 128.378125 
L 30.103125 125.651254 
L 31.096122 117.079763 
L 32.089118 113.243876 
L 33.082115 115.283594 
L 34.075111 118.326997 
L 35.110817 120.154099 
L 36.103814 117.582082 
L 37.09681 115.475769 
L 38.089807 118.704687 
L 39.082804 117.376588 
L 40.11851 113.701114 
L 41.111506 95.936719 
L 42.104503 90.884992 
L 43.097499 87.918649 
L 44.090496 85.676292 
L 45.126202 83.902774 
L 46.119198 74.234274 
L 47.112195 73.486505 
L 48.105192 73.081225 
L 49.098188 72.44191 
L 50.133894 71.517754 
L 51.126891 68.343448 
L 52.119887 67.881086 
L 53.112884 67.152344 
L 55.141587 66.059104 
L 56.134583 64.267818 
L 57.12758 63.10906 
L 58.120576 63.164239 
L 59.113573 62.658115 
L 60.149279 62.448694 
L 61.142275 61.036996 
L 62.135272 61.253906 
L 63.128269 60.85814 
L 64.121265 60.626008 
L 65.156971 60.156514 
L 67.142964 58.650983 
L 68.135961 58.879309 
L 69.128957 58.84506 
L 70.164663 58.552894 
L 71.15766 57.657762 
L 72.150657 58.063042 
L 74.13665 57.437998 
L 75.172356 57.250519 
L 76.165352 55.968145 
L 78.151345 56.120363 
L 79.144342 55.788338 
L 80.180048 55.821304 
L 81.173045 54.746598 
L 83.159038 54.959703 
L 85.145031 54.623301 
L 85.18774 54.609529 
L 86.180737 53.582132 
L 87.173733 53.690587 
L 90.152723 53.483952 
L 90.195433 53.517799 
L 91.188429 52.520413 
L 92.181426 52.914277 
L 93.174422 53.167339 
L 95.203125 52.715989 
L 96.196122 52.212172 
L 97.189118 52.463332 
L 100.210817 52.106704 
L 101.203814 51.664189 
L 102.19681 51.915348 
L 103.189807 51.508165 
L 104.182804 51.65848 
L 106.211506 51.641356 
L 107.204503 51.789768 
L 108.197499 51.298866 
L 109.190496 50.990625 
L 110.226202 50.820184 
L 111.219198 51.150454 
L 112.212195 51.196119 
L 113.205192 50.834602 
L 115.233894 50.704669 
L 116.226891 49.997404 
L 117.219887 50.47689 
L 120.241587 50.081794 
L 123.220576 50.04307 
L 125.249279 49.710334 
L 126.242275 49.35809 
L 131.249968 49.369506 
L 132.242964 49.118347 
L 134.228957 49.21824 
L 135.264663 49.370584 
L 136.25766 49.380922 
L 137.250657 49.066973 
L 140.272356 49.051219 
L 141.265352 48.730192 
L 142.258349 49.095514 
L 143.251345 48.661694 
L 144.244342 48.567509 
L 145.280048 48.670699 
L 146.273045 48.273538 
L 147.266041 48.410534 
L 149.252034 48.416242 
L 150.28774 48.464584 
L 151.280737 48.924269 
L 152.273733 48.924269 
L 153.26673 48.471421 
L 154.259727 48.187916 
L 155.295433 48.265264 
L 156.288429 47.679889 
L 157.281426 47.628516 
L 158.274422 47.698916 
L 159.267419 48.039504 
L 160.303125 48.045559 
L 161.296122 46.823664 
L 162.289118 47.873967 
L 163.282115 47.748387 
L 164.275111 47.92534 
L 165.310817 47.776024 
L 166.303814 46.903579 
L 167.29681 47.788344 
L 171.311506 47.565726 
L 172.304503 48.421951 
L 173.297499 45.777167 
L 174.290496 44.506149 
L 175.326202 43.633339 
L 176.319198 38.752319 
L 177.312195 39.220388 
L 178.305192 39.266053 
L 179.298188 39.080538 
L 180.333894 39.284539 
L 182.319887 39.288886 
L 183.312884 38.820817 
L 184.30588 38.758027 
L 185.341587 38.577859 
L 186.334583 38.090171 
L 187.32758 38.130129 
L 188.320576 37.736265 
L 189.313573 35.849716 
L 190.349279 34.349104 
L 191.342275 28.020968 
L 192.335272 27.684186 
L 196.349968 27.849723 
L 198.335961 27.343599 
L 199.328957 27.130494 
L 200.364663 27.058069 
L 201.35766 26.536845 
L 203.343653 26.670035 
L 204.33665 26.454076 
L 205.372356 26.564299 
L 206.365352 26.879335 
L 207.358349 26.6453 
L 209.344342 26.551115 
L 210.380048 26.541649 
L 211.373045 25.223967 
L 213.359038 25.943196 
L 215.38774 25.916509 
L 216.380737 25.189718 
L 218.36673 25.577873 
L 219.359727 25.709161 
L 220.395433 25.635649 
L 221.388429 24.538987 
L 222.381426 25.138344 
L 224.367419 25.383795 
L 225.403125 25.336669 
L 225.403125 25.336669 
" clip-path="url(#pd2a8366694)" style="fill: none; stroke-dasharray: 5.55,2.4; stroke-dashoffset: 0; stroke: #bf00bf; stroke-width: 1.5"/>
   </g>
   <g id="line2d_23">
    <path d="M 30.103125 118.006879 
L 35.110817 128.022709 
L 40.11851 95.583379 
L 45.126202 76.163269 
L 50.133894 69.517759 
L 55.141587 61.363759 
L 60.149279 60.779389 
L 65.156971 58.727299 
L 70.164663 62.518909 
L 75.172356 56.104429 
L 80.180048 60.086299 
L 85.18774 52.611799 
L 90.195433 55.166719 
L 95.203125 51.823579 
L 100.210817 52.720519 
L 105.21851 51.212029 
L 110.226202 50.124829 
L 115.233894 52.339999 
L 120.241587 49.173529 
L 125.249279 49.241479 
L 130.256971 48.711469 
L 135.264663 48.480439 
L 140.272356 48.466849 
L 145.280048 49.934569 
L 150.28774 48.711469 
L 155.295433 48.888139 
L 160.303125 48.534799 
L 165.310817 47.950429 
L 170.31851 48.113509 
L 175.326202 41.033119 
L 180.333894 41.264149 
L 185.341587 39.361549 
L 190.349279 30.691129 
L 195.356971 29.060329 
L 200.364663 27.959539 
L 205.372356 27.266449 
L 210.380048 27.742099 
L 215.38774 27.633379 
L 220.395433 27.280039 
L 225.403125 25.717189 
" clip-path="url(#pd2a8366694)" style="fill: none; stroke-dasharray: 9.6,2.4,1.5,2.4; stroke-dashoffset: 0; stroke: #008000; stroke-width: 1.5"/>
   </g>
   <g id="patch_3">
    <path d="M 30.103125 146.899219 
L 30.103125 10.999219 
" style="fill: none; stroke: #000000; stroke-width: 0.8; stroke-linejoin: miter; stroke-linecap: square"/>
   </g>
   <g id="patch_4">
    <path d="M 225.403125 146.899219 
L 225.403125 10.999219 
" style="fill: none; stroke: #000000; stroke-width: 0.8; stroke-linejoin: miter; stroke-linecap: square"/>
   </g>
   <g id="patch_5">
    <path d="M 30.103125 146.899219 
L 225.403125 146.899219 
" style="fill: none; stroke: #000000; stroke-width: 0.8; stroke-linejoin: miter; stroke-linecap: square"/>
   </g>
   <g id="patch_6">
    <path d="M 30.103125 10.999219 
L 225.403125 10.999219 
" style="fill: none; stroke: #000000; stroke-width: 0.8; stroke-linejoin: miter; stroke-linecap: square"/>
   </g>
   <g id="legend_1">
    <g id="patch_7">
     <path d="M 88.86875 141.899219 
L 166.6375 141.899219 
Q 168.6375 141.899219 168.6375 139.899219 
L 168.6375 96.864844 
Q 168.6375 94.864844 166.6375 94.864844 
L 88.86875 94.864844 
Q 86.86875 94.864844 86.86875 96.864844 
L 86.86875 139.899219 
Q 86.86875 141.899219 88.86875 141.899219 
z
" style="fill: #ffffff; opacity: 0.8; stroke: #cccccc; stroke-linejoin: miter"/>
    </g>
    <g id="line2d_24">
     <path d="M 90.86875 102.963281 
L 100.86875 102.963281 
L 110.86875 102.963281 
" style="fill: none; stroke: #1f77b4; stroke-width: 1.5; stroke-linecap: square"/>
    </g>
    <g id="text_12">
     <!-- train loss -->
     <g transform="translate(118.86875 106.463281)scale(0.1 -0.1)">
      <defs>
       <path id="DejaVuSans-74" d="M 1172 4494 
L 1172 3500 
L 2356 3500 
L 2356 3053 
L 1172 3053 
L 1172 1153 
Q 1172 725 1289 603 
Q 1406 481 1766 481 
L 2356 481 
L 2356 0 
L 1766 0 
Q 1100 0 847 248 
Q 594 497 594 1153 
L 594 3053 
L 172 3053 
L 172 3500 
L 594 3500 
L 594 4494 
L 1172 4494 
z
" transform="scale(0.015625)"/>
       <path id="DejaVuSans-72" d="M 2631 2963 
Q 2534 3019 2420 3045 
Q 2306 3072 2169 3072 
Q 1681 3072 1420 2755 
Q 1159 2438 1159 1844 
L 1159 0 
L 581 0 
L 581 3500 
L 1159 3500 
L 1159 2956 
Q 1341 3275 1631 3429 
Q 1922 3584 2338 3584 
Q 2397 3584 2469 3576 
Q 2541 3569 2628 3553 
L 2631 2963 
z
" transform="scale(0.015625)"/>
       <path id="DejaVuSans-61" d="M 2194 1759 
Q 1497 1759 1228 1600 
Q 959 1441 959 1056 
Q 959 750 1161 570 
Q 1363 391 1709 391 
Q 2188 391 2477 730 
Q 2766 1069 2766 1631 
L 2766 1759 
L 2194 1759 
z
M 3341 1997 
L 3341 0 
L 2766 0 
L 2766 531 
Q 2569 213 2275 61 
Q 1981 -91 1556 -91 
Q 1019 -91 701 211 
Q 384 513 384 1019 
Q 384 1609 779 1909 
Q 1175 2209 1959 2209 
L 2766 2209 
L 2766 2266 
Q 2766 2663 2505 2880 
Q 2244 3097 1772 3097 
Q 1472 3097 1187 3025 
Q 903 2953 641 2809 
L 641 3341 
Q 956 3463 1253 3523 
Q 1550 3584 1831 3584 
Q 2591 3584 2966 3190 
Q 3341 2797 3341 1997 
z
" transform="scale(0.015625)"/>
       <path id="DejaVuSans-69" d="M 603 3500 
L 1178 3500 
L 1178 0 
L 603 0 
L 603 3500 
z
M 603 4863 
L 1178 4863 
L 1178 4134 
L 603 4134 
L 603 4863 
z
" transform="scale(0.015625)"/>
       <path id="DejaVuSans-6e" d="M 3513 2113 
L 3513 0 
L 2938 0 
L 2938 2094 
Q 2938 2591 2744 2837 
Q 2550 3084 2163 3084 
Q 1697 3084 1428 2787 
Q 1159 2491 1159 1978 
L 1159 0 
L 581 0 
L 581 3500 
L 1159 3500 
L 1159 2956 
Q 1366 3272 1645 3428 
Q 1925 3584 2291 3584 
Q 2894 3584 3203 3211 
Q 3513 2838 3513 2113 
z
" transform="scale(0.015625)"/>
       <path id="DejaVuSans-20" transform="scale(0.015625)"/>
       <path id="DejaVuSans-6c" d="M 603 4863 
L 1178 4863 
L 1178 0 
L 603 0 
L 603 4863 
z
" transform="scale(0.015625)"/>
       <path id="DejaVuSans-73" d="M 2834 3397 
L 2834 2853 
Q 2591 2978 2328 3040 
Q 2066 3103 1784 3103 
Q 1356 3103 1142 2972 
Q 928 2841 928 2578 
Q 928 2378 1081 2264 
Q 1234 2150 1697 2047 
L 1894 2003 
Q 2506 1872 2764 1633 
Q 3022 1394 3022 966 
Q 3022 478 2636 193 
Q 2250 -91 1575 -91 
Q 1294 -91 989 -36 
Q 684 19 347 128 
L 347 722 
Q 666 556 975 473 
Q 1284 391 1588 391 
Q 1994 391 2212 530 
Q 2431 669 2431 922 
Q 2431 1156 2273 1281 
Q 2116 1406 1581 1522 
L 1381 1569 
Q 847 1681 609 1914 
Q 372 2147 372 2553 
Q 372 3047 722 3315 
Q 1072 3584 1716 3584 
Q 2034 3584 2315 3537 
Q 2597 3491 2834 3397 
z
" transform="scale(0.015625)"/>
      </defs>
      <use xlink:href="#DejaVuSans-74"/>
      <use xlink:href="#DejaVuSans-72" x="39.208984"/>
      <use xlink:href="#DejaVuSans-61" x="80.322266"/>
      <use xlink:href="#DejaVuSans-69" x="141.601562"/>
      <use xlink:href="#DejaVuSans-6e" x="169.384766"/>
      <use xlink:href="#DejaVuSans-20" x="232.763672"/>
      <use xlink:href="#DejaVuSans-6c" x="264.550781"/>
      <use xlink:href="#DejaVuSans-6f" x="292.333984"/>
      <use xlink:href="#DejaVuSans-73" x="353.515625"/>
      <use xlink:href="#DejaVuSans-73" x="405.615234"/>
     </g>
    </g>
    <g id="line2d_25">
     <path d="M 90.86875 117.641406 
L 100.86875 117.641406 
L 110.86875 117.641406 
" style="fill: none; stroke-dasharray: 5.55,2.4; stroke-dashoffset: 0; stroke: #bf00bf; stroke-width: 1.5"/>
    </g>
    <g id="text_13">
     <!-- train acc -->
     <g transform="translate(118.86875 121.141406)scale(0.1 -0.1)">
      <use xlink:href="#DejaVuSans-74"/>
      <use xlink:href="#DejaVuSans-72" x="39.208984"/>
      <use xlink:href="#DejaVuSans-61" x="80.322266"/>
      <use xlink:href="#DejaVuSans-69" x="141.601562"/>
      <use xlink:href="#DejaVuSans-6e" x="169.384766"/>
      <use xlink:href="#DejaVuSans-20" x="232.763672"/>
      <use xlink:href="#DejaVuSans-61" x="264.550781"/>
      <use xlink:href="#DejaVuSans-63" x="325.830078"/>
      <use xlink:href="#DejaVuSans-63" x="380.810547"/>
     </g>
    </g>
    <g id="line2d_26">
     <path d="M 90.86875 132.319531 
L 100.86875 132.319531 
L 110.86875 132.319531 
" style="fill: none; stroke-dasharray: 9.6,2.4,1.5,2.4; stroke-dashoffset: 0; stroke: #008000; stroke-width: 1.5"/>
    </g>
    <g id="text_14">
     <!-- test acc -->
     <g transform="translate(118.86875 135.819531)scale(0.1 -0.1)">
      <use xlink:href="#DejaVuSans-74"/>
      <use xlink:href="#DejaVuSans-65" x="39.208984"/>
      <use xlink:href="#DejaVuSans-73" x="100.732422"/>
      <use xlink:href="#DejaVuSans-74" x="152.832031"/>
      <use xlink:href="#DejaVuSans-20" x="192.041016"/>
      <use xlink:href="#DejaVuSans-61" x="223.828125"/>
      <use xlink:href="#DejaVuSans-63" x="285.107422"/>
      <use xlink:href="#DejaVuSans-63" x="340.087891"/>
     </g>
    </g>
   </g>
  </g>
 </g>
 <defs>
  <clipPath id="pd2a8366694">
   <rect x="30.103125" y="10.999219" width="195.3" height="135.9"/>
  </clipPath>
 </defs>
</svg>
